{"title":"kömufotograaf 2004 DVDRIP EESTI SUB","uid":8891049,"size":1365151474,"categoryP":"video","categoryS":"movies","magnet":"?xt=urn:btih:2a870f1adf2b50fedf0813b102b2359e4b0c8b85&amp;dn=k%26ouml%3Bmufotograaf+2004+DVDRIP+EESTI+SUB&amp;tr=udp%3A%2F%2Ftracker.openbittorrent.com%3A80&amp;tr=udp%3A%2F%2Fopen.demonii.com%3A1337&amp;tr=udp%3A%2F%2Ftracker.coppersurfer.tk%3A6969&amp;tr=udp%3A%2F%2Fexodus.desync.com%3A6969","seeders":1,"leechers":0,"uploader":"immri","files":1,"time":1378583877,"description":"Format                                   : AVI\nFormat/Info                              : Audio Video Interleave\nFormat profile                           : OpenDML\nFile size                                : 1.27 GiB\nDuration                                 : 1h 21mn\nOverall bit rate                         : 2 247 Kbps\nWriting application                      : Lavf52.13.0\n\nVideo\nID                                       : 0\nFormat                                   : MPEG-4 Visual\nFormat profile                           : Advanced Simple@L1\nFormat settings, BVOP                    : 2\nFormat settings, QPel                    : No\nFormat settings, GMC                     : No warppoints\nFormat settings, Matrix                  : Default (H.263)\nCodec ID                                 : DX50\nCodec ID/Hint                            : DivX 5\nDuration                                 : 1h 21mn\nBit rate                                 : 2 040 Kbps\nWidth                                    : 720 pixels\nHeight                                   : 576 pixels\nDisplay aspect ratio                     : 16:9\nFrame rate                               : 25.000 fps\nStandard                                 : PAL\nColor space                              : YUV\nChroma subsampling                       : 4:2:0\nBit depth                                : 8 bits\nScan type                                : Progressive\nCompression mode                         : Lossy\nBits/(Pixel*Frame)                       : 0.197\nStream size                              : 1.15 GiB (91%)\nWriting library                          : Lavc51.54.0\n\nAudio\nID                                       : 1\nFormat                                   : MPEG Audio\nFormat version                           : Version 1\nFormat profile                           : Layer 3\nMode                                     : Joint stereo\nCodec ID                                 : 55\nCodec ID/Hint                            : MP3\nDuration                                 : 1h 21mn\nBit rate mode                            : Constant\nBit rate                                 : 192 Kbps\nChannel(s)                               : 2 channels\nSampling rate                            : 44.1 KHz\nCompression mode                         : Lossy\nStream size                              : 111 MiB (9%)\nAlignment                                : Aligned on interleaves\nInterleave, duration                     : 26 ms (0.65 video frame)\n\n","torrent":{"xt":"urn:btih:2a870f1adf2b50fedf0813b102b2359e4b0c8b85","amp;dn":"k%26ouml%3Bmufotograaf+2004+DVDRIP+EESTI+SUB","amp;tr":["udp%3A%2F%2Ftracker.openbittorrent.com%3A80","udp%3A%2F%2Fopen.demonii.com%3A1337","udp%3A%2F%2Ftracker.coppersurfer.tk%3A6969","udp%3A%2F%2Fexodus.desync.com%3A6969"],"infoHash":"2a870f1adf2b50fedf0813b102b2359e4b0c8b85","infoHashBuffer":{"type":"Buffer","data":[42,135,15,26,223,43,80,254,223,8,19,177,2,178,53,158,75,12,139,133]},"announce":[],"urlList":[]}}